<?xml version="1.0" encoding="utf-8"?>
<!-- Generator: Adobe Illustrator 25.2.0, SVG Export Plug-In . SVG Version: 6.00 Build 0)  -->
<svg version="1.1" xmlns="http://www.w3.org/2000/svg" xmlns:xlink="http://www.w3.org/1999/xlink" x="0px" y="0px"
	 viewBox="0 0 540.02 186.31" style="enable-background:new 0 0 540.02 186.31;" xml:space="preserve">
<style type="text/css">
	.st0{display:none;}
	.st1{display:inline;}
</style>
<g id="Layer_1" class="st0">
	<g id="FONT" class="st1">
		<g>
			<g id="ctrl_7_">
				<g>
					<path d="M181.93,169.56c-4.27,0-7.98-1.54-11.02-4.59s-4.59-6.75-4.59-11.02v-41.48c0-4.27,1.54-7.98,4.59-11.02
						s6.75-4.59,11.02-4.59h56.89v17.53h-55.08v37.64h55.08v17.53H181.93z"/>
					<polygon points="267.86,169.56 267.86,114.39 240.28,114.39 240.28,96.86 312.98,96.86 312.98,114.39 285.39,114.39 
						285.39,169.56 					"/>
					<path d="M370.4,169.56l-19.46-23.18l-18.49,0.09v23.09h-17.43v-72.6H372c4.27,0,7.99,1.56,11.07,4.64
						c3.08,3.08,4.64,6.77,4.64,10.98v18.2c0,4.21-1.56,7.9-4.64,10.98c-2.66,2.66-5.81,4.19-9.38,4.55l14.02,16.53v6.73H370.4z
						 M370.09,128.85v-14.46h-37.64v14.46H370.09z"/>
					<polygon points="392.98,169.56 392.98,96.76 410.41,96.76 410.41,152.03 465.68,152.03 465.68,169.56 					"/>
				</g>
			</g>
			<g>
				<g>
					<polygon points="66.84,93.29 66.84,38.12 39.25,38.12 39.25,20.59 111.95,20.59 111.95,38.12 84.37,38.12 84.37,93.29 					"/>
					<path d="M113.7,93.29V49.6c0-4.14,1.53-7.77,4.54-10.78c3.01-3.01,6.67-4.54,10.88-4.54h32.44v17.23h-30.62v41.77H113.7z"/>
					<path d="M177.53,93.29c-4.21,0-7.85-1.53-10.83-4.54c-2.98-3.01-4.48-6.63-4.48-10.77V55.12h42.55v-3.6h-42.55V34.28h44.47
						c4.21,0,7.85,1.53,10.83,4.54c2.98,3.01,4.49,6.64,4.49,10.78v43.69H177.53z M204.77,76.05V70.5h-25.32v5.56H204.77z"/>
					<path d="M242.39,93.29c-4.14,0-7.77-1.53-10.78-4.54c-3.01-3.01-4.54-6.64-4.54-10.78V49.6c0-4.14,1.53-7.77,4.54-10.78
						c3.01-3.01,6.64-4.54,10.78-4.54h44.37v17.23H244.3v24.54h42.55v17.23H242.39z"/>
					<path d="M307.73,93.29c-4.21,0-7.87-1.53-10.88-4.54c-3.01-3.01-4.54-6.64-4.54-10.78V17.46h17.23v16.83h21.03v17.23h-21.03
						v24.54h21.03v17.23H307.73z"/>
					<path d="M333.4,93.29V34.28h17.23v59.01H333.4z M333.4,33.03V15.7h17.23v17.33H333.4z"/>
					<path d="M368.09,93.29c-4.14,0-7.77-1.53-10.78-4.54c-3.01-3.01-4.54-6.64-4.54-10.78V49.6c0-4.14,1.53-7.77,4.54-10.78
						c3.01-3.01,6.64-4.54,10.78-4.54h29.15c4.21,0,7.85,1.53,10.83,4.54c2.98,3.01,4.48,6.64,4.48,10.78v28.37
						c0,4.14-1.51,7.76-4.48,10.77c-2.98,3.02-6.62,4.54-10.83,4.54H368.09z M395.32,76.05V51.52h-25.32v24.54H395.32z"/>
					<path d="M460.38,93.29V51.52h-25.32v41.77h-17.23V34.28h44.47c4.21,0,7.85,1.53,10.83,4.54c2.98,3.01,4.48,6.64,4.48,10.78
						v43.69H460.38z"/>
				</g>
			</g>
		</g>
	</g>
</g>
<g id="Layer_6">
	<g id="FONT_3_">
		<g>
			<g>
				<g>
					<path d="M172.78,186.23c-5.22,0-9.37-1.9-12.32-5.65c-2.95-3.74-3.88-8.27-2.77-13.48l10.81-50.88
						c1.09-5.11,3.87-9.55,8.27-13.18c4.41-3.64,9.24-5.48,14.37-5.48h69.8l-4.46,20.99h-67.56L179,165.24h67.56l-4.46,20.99H172.78
						z"/>
				</g>
				<g>
					<polygon points="281.27,186.23 295.66,118.55 261.82,118.55 266.28,97.56 355,97.56 350.53,118.55 316.69,118.55 
						302.31,186.23 					"/>
				</g>
				<g>
					<path d="M409.74,186.23l-17.83-28.44l-23.2,0.11l-6.02,28.32h-20.92l18.82-88.55h69.44c5.22,0,9.38,1.92,12.37,5.71
						c2.98,3.78,3.93,8.3,2.85,13.42l-4.74,22.32c-1.07,5.03-3.87,9.45-8.32,13.12c-4.11,3.39-8.56,5.24-13.24,5.5l13.19,20.76
						l-1.64,7.71H409.74z M419.83,136.8l3.88-18.25h-46.64l-3.88,18.25H419.83z"/>
				</g>
				<g>
					<polygon points="435.82,186.23 454.69,97.44 475.38,97.44 460.97,165.24 527.92,165.24 523.46,186.23 					"/>
				</g>
			</g>
			<g>
				<g>
					<polygon points="19.45,92.67 33.84,24.99 0,24.99 4.46,4 93.18,4 88.72,24.99 54.88,24.99 40.49,92.67 					"/>
				</g>
				<g>
					<path d="M77.68,92.67L89.07,39.1c1.05-4.95,3.79-9.29,8.15-12.88c4.36-3.6,9.13-5.42,14.18-5.42h39.8l-4.38,20.63h-37.56
						L98.36,92.67H77.68z"/>
				</g>
				<g>
					<path d="M160.62,92.67c-5.15,0-9.22-1.88-12.1-5.6c-2.87-3.7-3.78-8.13-2.71-13.17l5.85-27.54h52.2l1.05-4.93h-52.2l4.39-20.63
						h54.08c5.14,0,9.21,1.88,12.1,5.6c2.87,3.7,3.78,8.13,2.71,13.17l-11.29,53.1H160.62z M198.84,72.04l1.56-7.33h-31.52
						l-1.56,7.33H198.84z"/>
				</g>
				<g>
					<path d="M238.84,92.67c-5.07,0-9.11-1.88-12.03-5.59c-2.91-3.7-3.85-8.13-2.78-13.18l7.4-34.8c1.05-4.96,3.79-9.29,8.15-12.88
						c4.36-3.6,9.09-5.42,14.06-5.42h54.44l-4.38,20.63h-52.08l-6.51,30.61h52.2l-4.38,20.63H238.84z"/>
				</g>
				<g>
					<path d="M317.45,92.67c-5.15,0-9.23-1.88-12.15-5.59c-2.91-3.7-3.85-8.13-2.78-13.18L318.2,0.16h20.68l-4.39,20.64h25.8
						l-4.38,20.63h-25.8l-6.51,30.61h25.8l-4.38,20.63H317.45z"/>
				</g>
				<g>
					<polygon points="350.63,92.67 365.91,20.8 386.58,20.8 371.31,92.67 					"/>
				</g>
				<g>
					<path d="M395.73,92.67c-5.07,0-9.11-1.88-12.03-5.59c-2.91-3.7-3.85-8.13-2.78-13.18l7.4-34.8c1.05-4.95,3.79-9.29,8.15-12.88
						c4.36-3.6,9.09-5.42,14.06-5.42h35.76c5.14,0,9.21,1.88,12.1,5.6c2.87,3.7,3.78,8.13,2.71,13.17l-7.4,34.8
						c-1.05,4.95-3.77,9.29-8.08,12.88c-4.32,3.6-9.07,5.42-14.12,5.42H395.73z M433.51,72.04l6.51-30.61H408.5l-6.51,30.61H433.51z
						"/>
				</g>
				<g>
					<path d="M507.62,92.67l10.89-51.24h-31.52L476.1,92.67h-20.68L470.7,20.8h54.08c5.14,0,9.21,1.88,12.1,5.6
						c2.87,3.7,3.78,8.13,2.71,13.17l-11.29,53.1H507.62z"/>
				</g>
				<g>
					<path d="M366.72,16.7L370,0.16h20.86v2.99l-0.65,2.7c-0.66,2.73-1.31,5.46-1.98,8.18c-0.1,0.42-0.25,0.8-0.42,1.23
						c-0.08,0.21-0.17,0.43-0.26,0.69l-0.27,0.75H366.72z"/>
				</g>
			</g>
		</g>
	</g>
</g>
<g id="Layer_5">
	<g>
		<path d="M19.72,97.5c9.09,0,18.07,0,27.22,0c0.57,3.6,1.15,7.14,1.7,10.69c1.67,10.74,3.36,21.49,4.96,32.24
			c0.14,0.93-0.07,2.05-0.5,2.91c-4.22,8.56-8.53,17.08-12.79,25.63c-2.59,5.2-5.17,10.39-7.66,15.64c-0.62,1.3-1.38,1.72-2.83,1.71
			c-8.34-0.07-16.69-0.04-25.34-0.04c1.22-2.59,2.31-5.01,3.5-7.4c4.41-8.83,8.85-17.65,13.27-26.48c1.56-3.11,3.19-6.2,4.6-9.38
			c0.43-0.98,0.43-2.26,0.26-3.35c-2.12-13.87-4.3-27.74-6.46-41.6C19.64,97.95,19.68,97.82,19.72,97.5z"/>
	</g>
	<g>
		<path d="M53.66,97.51c9.09,0,18.07,0,27.22,0c0.57,3.6,1.15,7.14,1.7,10.69c1.67,10.74,3.36,21.49,4.96,32.24
			c0.14,0.93-0.07,2.05-0.5,2.91c-4.22,8.56-8.53,17.08-12.79,25.63c-2.59,5.2-5.17,10.39-7.66,15.64c-0.62,1.3-1.38,1.72-2.83,1.71
			c-8.34-0.07-16.69-0.04-25.34-0.04c1.22-2.59,2.31-5.01,3.5-7.4c4.41-8.83,8.85-17.65,13.27-26.48c1.56-3.11,3.19-6.2,4.6-9.38
			c0.43-0.98,0.43-2.26,0.26-3.35c-2.12-13.87-4.3-27.74-6.46-41.6C53.58,97.95,53.63,97.82,53.66,97.51z"/>
	</g>
	<g>
		<path d="M87.6,97.51c9.09,0,18.07,0,27.22,0c0.57,3.6,1.15,7.14,1.7,10.69c1.67,10.74,3.36,21.49,4.96,32.24
			c0.14,0.93-0.07,2.05-0.5,2.91c-4.22,8.56-8.53,17.08-12.79,25.63c-2.59,5.2-5.17,10.39-7.66,15.64c-0.62,1.3-1.38,1.72-2.83,1.71
			c-8.34-0.07-16.69-0.04-25.34-0.04c1.22-2.59,2.31-5.01,3.5-7.4c4.41-8.83,8.85-17.65,13.27-26.48c1.56-3.11,3.19-6.2,4.6-9.38
			c0.43-0.98,0.43-2.26,0.26-3.35c-2.12-13.87-4.3-27.74-6.46-41.6C87.53,97.95,87.57,97.82,87.6,97.51z"/>
	</g>
	<g>
		<path d="M121.55,97.51c9.09,0,18.07,0,27.22,0c0.57,3.6,1.15,7.14,1.7,10.69c1.67,10.74,3.36,21.49,4.96,32.24
			c0.14,0.93-0.07,2.05-0.5,2.91c-4.22,8.56-8.53,17.08-12.79,25.63c-2.59,5.2-5.17,10.39-7.66,15.64c-0.62,1.3-1.38,1.72-2.83,1.71
			c-8.34-0.07-16.69-0.04-25.34-0.04c1.22-2.59,2.31-5.01,3.5-7.4c4.41-8.83,8.85-17.65,13.27-26.48c1.56-3.11,3.19-6.2,4.6-9.38
			c0.43-0.98,0.43-2.26,0.26-3.35c-2.12-13.87-4.3-27.74-6.46-41.6C121.47,97.95,121.51,97.82,121.55,97.51z"/>
	</g>
</g>
</svg>
