<?xml version="1.0" encoding="utf-8"?>
<!-- Generator: Adobe Illustrator 25.2.0, SVG Export Plug-In . SVG Version: 6.00 Build 0)  -->
<svg version="1.1" id="Layer_1" xmlns="http://www.w3.org/2000/svg" xmlns:xlink="http://www.w3.org/1999/xlink" x="0px" y="0px"
	 viewBox="0 0 612.8 93.2" style="enable-background:new 0 0 612.8 93.2;" xml:space="preserve">
<style type="text/css">
	.st0{display:none;}
	.st1{display:inline;}
</style>
<g id="Layer_1_1_" class="st0">
	<g id="FONT" class="st1">
		<g>
			<g id="ctrl_7_">
				<g>
					<path d="M181.9,76.4c-4.3,0-8-1.5-11-4.6s-4.6-6.8-4.6-11V19.3c0-4.3,1.5-8,4.6-11s6.8-4.6,11-4.6h56.9v17.5h-55.1v37.6h55.1
						v17.5h-56.9V76.4z"/>
					<polygon points="267.9,76.4 267.9,21.2 240.3,21.2 240.3,3.7 313,3.7 313,21.2 285.4,21.2 285.4,76.4 					"/>
					<path d="M370.4,76.4l-19.5-23.2l-18.5,0.1v23.1H315V3.8h57c4.3,0,8,1.6,11.1,4.6c3.1,3.1,4.6,6.8,4.6,11v18.2
						c0,4.2-1.6,7.9-4.6,11c-2.7,2.7-5.8,4.2-9.4,4.6l14,16.5v6.7L370.4,76.4L370.4,76.4z M370.1,35.7V21.2h-37.6v14.5H370.1z"/>
					<polygon points="393,76.4 393,3.6 410.4,3.6 410.4,58.9 465.7,58.9 465.7,76.4 					"/>
				</g>
			</g>
			<g>
				<g>
					<polygon points="66.8,0.1 66.8,-55 39.2,-55 39.2,-72.6 111.9,-72.6 111.9,-55 84.4,-55 84.4,0.1 					"/>
					<path d="M113.7,0.1v-43.7c0-4.1,1.5-7.8,4.5-10.8s6.7-4.5,10.9-4.5h32.4v17.2h-30.6V0.1H113.7L113.7,0.1z"/>
					<path d="M177.5,0.1c-4.2,0-7.9-1.5-10.8-4.5s-4.5-6.6-4.5-10.8V-38h42.6v-3.6h-42.6v-17.2h44.5c4.2,0,7.9,1.5,10.8,4.5
						c3,3,4.5,6.6,4.5,10.8V0.1C222,0.1,177.5,0.1,177.5,0.1z M204.8-17.1v-5.6h-25.3v5.6H204.8L204.8-17.1z"/>
					<path d="M242.4,0.1c-4.1,0-7.8-1.5-10.8-4.5s-4.5-6.6-4.5-10.8v-28.4c0-4.1,1.5-7.8,4.5-10.8s6.6-4.5,10.8-4.5h44.4v17.2h-42.5
						v24.5h42.6V0.1H242.4L242.4,0.1z"/>
					<path d="M307.7,0.1c-4.2,0-7.9-1.5-10.9-4.5s-4.5-6.6-4.5-10.8v-60.5h17.2v16.8h21v17.2h-21v24.5h21V0.1
						C330.6,0.1,307.7,0.1,307.7,0.1z"/>
					<path d="M333.4,0.1v-59h17.2v59C350.6,0.1,333.4,0.1,333.4,0.1z M333.4-60.1v-17.3h17.2v17.3C350.6-60.1,333.4-60.1,333.4-60.1
						z"/>
					<path d="M368.1,0.1c-4.1,0-7.8-1.5-10.8-4.5s-4.5-6.6-4.5-10.8v-28.4c0-4.1,1.5-7.8,4.5-10.8s6.6-4.5,10.8-4.5h29.1
						c4.2,0,7.9,1.5,10.8,4.5c3,3,4.5,6.6,4.5,10.8v28.4c0,4.1-1.5,7.8-4.5,10.8s-6.6,4.5-10.8,4.5L368.1,0.1L368.1,0.1z
						 M395.3-17.1v-24.5H370v24.5L395.3-17.1L395.3-17.1z"/>
					<path d="M460.4,0.1v-41.8h-25.3V0.1h-17.2v-59h44.5c4.2,0,7.9,1.5,10.8,4.5c3,3,4.5,6.6,4.5,10.8V0.1
						C477.6,0.1,460.4,0.1,460.4,0.1z"/>
				</g>
			</g>
		</g>
	</g>
</g>
<g id="Layer_6">
	<g id="FONT_3_">
		<g>
			<g>
				<g>
					<path d="M254.8,92.9c-5.2,0-9.4-1.9-12.3-5.6c-2.9-3.7-3.9-8.3-2.8-13.5l10.8-50.9c1.1-5.1,3.9-9.6,8.3-13.2s9.2-5.5,14.4-5.5
						H343l-4.5,21h-67.6L261,72h67.6l-4.5,21L254.8,92.9L254.8,92.9z"/>
				</g>
				<g>
					<polygon points="363.3,92.9 377.7,25.3 343.8,25.3 348.3,4.3 437,4.3 432.5,25.3 398.7,25.3 384.3,92.9 					"/>
				</g>
				<g>
					<path d="M491.8,92.9L474,64.5l-23.2,0.1l-6,28.3h-20.9l18.8-88.6H512c5.2,0,9.4,1.9,12.4,5.7s3.9,8.3,2.8,13.4l-4.7,22.3
						c-1.1,5-3.9,9.4-8.3,13.1c-4.1,3.4-8.6,5.2-13.2,5.5l13.2,20.8l-1.6,7.7L491.8,92.9L491.8,92.9z M501.8,43.5l3.9-18.2h-46.6
						l-3.9,18.2H501.8z"/>
				</g>
				<g>
					<polygon points="517.8,92.9 536.7,4.2 557.4,4.2 543,72 609.9,72 605.5,92.9 					"/>
				</g>
				<g>
					<g>
						<polygon points="175.8,92.9 190.2,25.2 156.3,25.2 160.8,4.2 249.5,4.2 245,25.2 211.2,25.2 196.8,92.9 						"/>
					</g>
				</g>
			</g>
			<g class="st0">
				<g class="st1">
					<polygon points="113.7,30.3 128.1,-37.3 94.2,-37.3 98.7,-58.3 187.4,-58.3 182.9,-37.3 149.1,-37.3 134.7,30.3 					"/>
				</g>
				<g class="st1">
					<path d="M171.9,30.3l11.4-53.6c1.1-5,3.8-9.3,8.2-12.9s9.1-5.4,14.2-5.4h39.8L241-20.9h-37.6l-10.9,51.2
						C192.5,30.3,171.9,30.3,171.9,30.3z"/>
				</g>
				<g class="st1">
					<path d="M254.8,30.3c-5.1,0-9.2-1.9-12.1-5.6c-2.9-3.7-3.8-8.1-2.7-13.2l5.9-27.5h52.2l1-4.9h-52.2l4.4-20.6h54.1
						c5.1,0,9.2,1.9,12.1,5.6c2.9,3.7,3.8,8.1,2.7,13.2l-11.3,53.1L254.8,30.3L254.8,30.3z M293.1,9.7l1.6-7.3h-31.5l-1.6,7.3H293.1
						z"/>
				</g>
				<g class="st1">
					<path d="M333.1,30.3c-5.1,0-9.1-1.9-12-5.6s-3.9-8.1-2.8-13.2l7.4-34.8c1-5,3.8-9.3,8.1-12.9c4.4-3.6,9.1-5.4,14.1-5.4h54.4
						L397.9-21h-52.1l-6.5,30.6h52.2l-4.4,20.6L333.1,30.3L333.1,30.3z"/>
				</g>
				<g class="st1">
					<path d="M411.7,30.3c-5.1,0-9.2-1.9-12.1-5.6s-3.9-8.1-2.8-13.2l15.7-73.7h20.7l-4.4,20.6h25.8L450.2-21h-25.8l-6.5,30.6h25.8
						l-4.4,20.6L411.7,30.3L411.7,30.3z"/>
				</g>
				<g class="st1">
					<polygon points="444.8,30.3 460.1,-41.5 480.8,-41.5 465.5,30.3 					"/>
				</g>
				<g class="st1">
					<path d="M489.9,30.3c-5.1,0-9.1-1.9-12-5.6s-3.9-8.1-2.8-13.2l7.4-34.8c1-5,3.8-9.3,8.1-12.9c4.4-3.6,9.1-5.4,14.1-5.4h35.8
						c5.1,0,9.2,1.9,12.1,5.6c2.9,3.7,3.8,8.1,2.7,13.2L547.9,12c-1,4.9-3.8,9.3-8.1,12.9s-9.1,5.4-14.1,5.4
						C525.7,30.3,489.9,30.3,489.9,30.3z M527.7,9.7l6.5-30.6h-31.5l-6.5,30.6C496.2,9.7,527.7,9.7,527.7,9.7z"/>
				</g>
				<g class="st1">
					<path d="M601.8,30.3l10.9-51.2h-31.5l-10.9,51.2h-20.7l15.3-71.9H619c5.1,0,9.2,1.9,12.1,5.6c2.9,3.7,3.8,8.1,2.7,13.2
						l-11.3,53.1C622.5,30.3,601.8,30.3,601.8,30.3z"/>
				</g>
				<g class="st1">
					<path d="M460.9-45.6l3.3-16.5h20.9v3l-0.6,2.7c-0.7,2.7-1.3,5.5-2,8.2c-0.1,0.4-0.2,0.8-0.4,1.2c-0.1,0.2-0.2,0.4-0.3,0.7
						l-0.3,0.8h-20.6V-45.6z"/>
				</g>
			</g>
		</g>
		<g>
			<g class="st0">
				<g class="st1">
					<polygon points="136.9,-96.2 151.3,-163.9 117.5,-163.9 121.9,-184.9 210.6,-184.9 206.2,-163.9 172.3,-163.9 157.9,-96.2 
											"/>
				</g>
				<g class="st1">
					<path d="M195.1-96.2l11.4-53.6c1.1-5,3.8-9.3,8.2-12.9c4.4-3.6,9.1-5.4,14.2-5.4h39.8l-4.4,20.6h-37.6l-10.9,51.2L195.1-96.2
						L195.1-96.2z"/>
				</g>
				<g class="st1">
					<path d="M278.1-96.2c-5.1,0-9.2-1.9-12.1-5.6s-3.8-8.1-2.7-13.2l5.9-27.5h52.2l1.1-4.9h-52.2l4.4-20.6h54.1
						c5.1,0,9.2,1.9,12.1,5.6c2.9,3.7,3.8,8.1,2.7,13.2l-11.3,53.1L278.1-96.2L278.1-96.2z M316.3-116.8l1.6-7.3h-31.5l-1.6,7.3
						H316.3z"/>
				</g>
				<g class="st1">
					<path d="M356.3-96.2c-5.1,0-9.1-1.9-12-5.6s-3.9-8.1-2.8-13.2l7.4-34.8c1.1-5,3.8-9.3,8.1-12.9c4.4-3.6,9.1-5.4,14.1-5.4h54.4
						l-4.4,20.6H369l-6.5,30.6h52.2l-4.4,20.6L356.3-96.2L356.3-96.2z"/>
				</g>
				<g class="st1">
					<path d="M434.9-96.2c-5.1,0-9.2-1.9-12.1-5.6s-3.9-8.1-2.8-13.2l15.7-73.7h20.7l-4.4,20.6h25.8l-4.4,20.6h-25.8l-6.5,30.6h25.8
						l-4.4,20.6L434.9-96.2L434.9-96.2z"/>
				</g>
				<g class="st1">
					<polygon points="468.1,-96.2 483.4,-168.1 504,-168.1 488.8,-96.2 					"/>
				</g>
				<g class="st1">
					<path d="M513.2-96.2c-5.1,0-9.1-1.9-12-5.6s-3.9-8.1-2.8-13.2l7.4-34.8c1-4.9,3.8-9.3,8.2-12.9c4.4-3.6,9.1-5.4,14.1-5.4h35.8
						c5.1,0,9.2,1.9,12.1,5.6c2.9,3.7,3.8,8.1,2.7,13.2l-7.4,34.8c-1,4.9-3.8,9.3-8.1,12.9s-9.1,5.4-14.1,5.4
						C549-96.2,513.2-96.2,513.2-96.2z M551-116.8l6.5-30.6H526l-6.5,30.6C519.5-116.8,551-116.8,551-116.8z"/>
				</g>
				<g class="st1">
					<path d="M625.1-96.2l10.9-51.2h-31.5l-10.9,51.2h-20.7l15.3-71.9h54.1c5.1,0,9.2,1.9,12.1,5.6c2.9,3.7,3.8,8.1,2.7,13.2
						l-11.3,53.1C645.8-96.2,625.1-96.2,625.1-96.2z"/>
				</g>
				<g class="st1">
					<path d="M484.2-172.2l3.3-16.5h20.9v3l-0.6,2.7c-0.7,2.7-1.3,5.5-2,8.2c-0.1,0.4-0.2,0.8-0.4,1.2c-0.1,0.2-0.2,0.4-0.3,0.7
						l-0.3,0.8L484.2-172.2L484.2-172.2z"/>
				</g>
			</g>
		</g>
	</g>
</g>
<g id="Layer_5">
	<g>
		<path d="M19.7,4.3c9.1,0,18.1,0,27.2,0c0.6,3.6,1.2,7.1,1.7,10.7c1.7,10.7,3.4,21.5,5,32.2c0.1,0.9-0.1,2.1-0.5,2.9
			c-4.2,8.6-8.5,17.1-12.8,25.6c-2.6,5.2-5.2,10.4-7.7,15.6C32,92.6,31.2,93,29.8,93c-8.3-0.1-16.7,0-25.3,0c1.2-2.6,2.3-5,3.5-7.4
			c4.4-8.8,8.9-17.6,13.3-26.5c1.6-3.1,3.2-6.2,4.6-9.4c0.4-1,0.4-2.3,0.3-3.4C24,32.6,21.8,18.8,19.6,4.9
			C19.6,4.8,19.7,4.7,19.7,4.3z"/>
	</g>
	<g>
		<path d="M53.7,4.4c9.1,0,18.1,0,27.2,0C81.4,8,82,11.5,82.6,15c1.7,10.7,3.4,21.5,5,32.2c0.1,0.9-0.1,2.1-0.5,2.9
			c-4.2,8.6-8.5,17.1-12.8,25.6c-2.6,5.2-5.2,10.4-7.7,15.6C66,92.6,65.2,93,63.8,93c-8.3-0.1-16.7,0-25.3,0c1.2-2.6,2.3-5,3.5-7.4
			c4.4-8.8,8.9-17.6,13.3-26.5c1.6-3.1,3.2-6.2,4.6-9.4c0.4-1,0.4-2.3,0.3-3.4c-2.1-13.9-4.3-27.7-6.5-41.6
			C53.6,4.8,53.6,4.7,53.7,4.4z"/>
	</g>
	<g>
		<path d="M87.6,4.4c9.1,0,18.1,0,27.2,0c0.6,3.6,1.2,7.1,1.7,10.7c1.7,10.7,3.4,21.5,5,32.2c0.1,0.9-0.1,2.1-0.5,2.9
			c-4.2,8.6-8.5,17.1-12.8,25.6c-2.6,5.2-5.2,10.4-7.7,15.6c-0.6,1.3-1.4,1.7-2.8,1.7c-8.3-0.1-16.7,0-25.3,0c1.2-2.6,2.3-5,3.5-7.4
			c4.4-8.8,8.8-17.6,13.3-26.5c1.6-3.1,3.2-6.2,4.6-9.4c0.4-1,0.4-2.3,0.3-3.4C92,32.5,89.8,18.7,87.6,4.8
			C87.5,4.8,87.6,4.7,87.6,4.4z"/>
	</g>
	<g>
		<path d="M121.6,4.4c9.1,0,18.1,0,27.2,0c0.6,3.6,1.1,7.1,1.7,10.7c1.7,10.7,3.4,21.5,5,32.2c0.1,0.9-0.1,2.1-0.5,2.9
			c-4.2,8.6-8.5,17.1-12.8,25.6c-2.6,5.2-5.2,10.4-7.7,15.6c-0.6,1.3-1.4,1.7-2.8,1.7c-8.3-0.1-16.7,0-25.3,0c1.2-2.6,2.3-5,3.5-7.4
			c4.4-8.8,8.8-17.6,13.3-26.5c1.6-3.1,3.2-6.2,4.6-9.4c0.4-1,0.4-2.3,0.3-3.4c-2.1-13.9-4.3-27.7-6.5-41.6
			C121.5,4.8,121.5,4.7,121.6,4.4z"/>
	</g>
</g>
</svg>
